# xmcd
# 
# Track frame offsets:
#     187
#     12750
#     30450
#     57412
#     78350
#     95875
#     104925
#     122212
#     139950
#     152587
# 
# Disc length: 2225
# 
# Revision: 2
# Processed by: cddbd v1.5.2PL0 Copyright (c) Steve Scherf et al.
# Submitted via: BonkEnc v1.0.8
# 
DISCID=8708af0a
DTITLE=Wynton Kelly - It's All Right
DYEAR=1964
DGENRE=Jazz
TTITLE0=It's All Right
TTITLE1=South Seas
TTITLE2=Not a Tears
TTITLE3=Portrait of Jennie
TTITLE4=Kelly Roll
TTITLE5=The Fall of Love
TTITLE6=Moving Up
TTITLE7=On the Trail from "The Grand Canyon Suite"
TTITLE8=Escapade
TTITLE9=One for Joan
EXTD=
EXTT0=
EXTT1=
EXTT2=
EXTT3=
EXTT4=
EXTT5=
EXTT6=
EXTT7=
EXTT8=
EXTT9=
PLAYORDER=
